# xmcd
# 
# Track frame offsets:
#     150
#     13257
#     28137
#     38655
#     55217
#     68630
#     89285
#     102362
#     114702
#     129520
#     145407
#     159357
#     174697
#     193540
#     208987
#     222760
#     236845
#     253055
#     269175
#     283380
# 
# Disc length: 4169
# 
# Revision: 4
# Processed by: cddbd v1.5.2PL0 Copyright (c) Steve Scherf et al.
# Submitted via: fre:ac v1.0.17
# 
DISCID=3d104714
DTITLE=Tom Jones - Simply The Best
DYEAR=1994
DGENRE=Soul
TTITLE0=She's A Lady
TTITLE1=Daughter Of Darkness
TTITLE2=Till
TTITLE3=To All The Girls I Loved Before
TTITLE4=I (Who Have Nothing)
TTITLE5=The Young New Mexican Puppeteer
TTITLE6=Come To Me
TTITLE7=You've Got A Friend
TTITLE8=Till I Can't Take It Anymore
TTITLE9=Something 'bout You Baby I Like
TTITLE10=Letter To Lucille
TTITLE11=Puppet Man
TTITLE12=Love Is In The Air
TTITLE13=You're My World
TTITLE14=If
TTITLE15=Nothing Rhymed
TTITLE16=Say You'll Stay Until Tomorrow
TTITLE17=You'll Never Walk Alone
TTITLE18=Delilah
TTITLE19=I'll Never Fall In Love Again
EXTD=YEAR: 1994
EXTT0=
EXTT1=
EXTT2=
EXTT3=
EXTT4=
EXTT5=
EXTT6=
EXTT7=
EXTT8=
EXTT9=
EXTT10=
EXTT11=
EXTT12=
EXTT13=
EXTT14=
EXTT15=
EXTT16=
EXTT17=
EXTT18=
EXTT19=
PLAYORDER=
